<svg width="16" height="15" viewBox="0 0 16 15" fill="none" xmlns="http://www.w3.org/2000/svg">
<path d="M6.67865 1.32812C6.17219 1.32812 5.75256 1.7117 5.75256 2.17465V8.10029C5.75256 8.56323 6.17219 8.94681 6.67865 8.94681H7.60473C8.11118 8.94681 8.53081 8.56323 8.53081 8.10029V2.17465C8.53081 1.7117 8.11118 1.32812 7.60473 1.32812H6.67865ZM6.67865 2.17465H7.60473V8.10029H6.67865V2.17465ZM6.67865 9.79333C6.17219 9.79333 5.75256 10.1769 5.75256 10.6399V11.4864C5.75256 11.9493 6.17219 12.3329 6.67865 12.3329H7.60473C8.11118 12.3329 8.53081 11.9493 8.53081 11.4864V10.6399C8.53081 10.1769 8.11118 9.79333 7.60473 9.79333H6.67865ZM6.67865 10.6399H7.60473V11.4864H6.67865V10.6399Z" fill="#5930BF"/>
</svg>
