<svg width="16" height="17" viewBox="0 0 16 17" fill="none" xmlns="http://www.w3.org/2000/svg">
<path d="M7.55026 1.80078C4.03787 1.80078 1.17664 4.66202 1.17664 8.17441C1.17664 11.6868 4.03787 14.548 7.55026 14.548C11.0627 14.548 13.9239 11.6868 13.9239 8.17441C13.9239 4.66202 11.0627 1.80078 7.55026 1.80078ZM7.55026 2.78134C10.5341 2.78134 12.9433 5.1906 12.9433 8.17441C12.9433 11.1582 10.5341 13.5675 7.55026 13.5675C4.56646 13.5675 2.15719 11.1582 2.15719 8.17441C2.15719 5.1906 4.56646 2.78134 7.55026 2.78134ZM10.1434 5.86857L6.56971 9.44224L4.95332 7.82968L4.26386 8.51914L6.56971 10.8288L10.8405 6.55802L10.1434 5.86857Z" fill="#5930BF"/>
</svg>
